<?xml version="1.0" encoding="UTF-8" standalone="no"?>
<!DOCTYPE svg PUBLIC "-//W3C//DTD SVG 1.1//EN" "http://www.w3.org/Graphics/SVG/1.1/DTD/svg11.dtd">
<svg width="100%" height="100%" viewBox="0 0 8503 8503" version="1.1" xmlns="http://www.w3.org/2000/svg" xmlns:xlink="http://www.w3.org/1999/xlink" xml:space="preserve" xmlns:serif="http://www.serif.com/" style="fill-rule:evenodd;clip-rule:evenodd;stroke-linejoin:round;stroke-miterlimit:2;">
    <g transform="matrix(1,0,0,1,-0,-0.000567)">
        <g id="layer1" transform="matrix(2.834646,0,0,2.834646,-8368.874646,9999.751181)">
            <path id="path291" d="M4344.907,-742.581C4246.117,-940.161 4237.768,-956.759 4237.354,-956.4C4237.107,-956.185 4155.824,-886.029 4056.724,-800.497C3957.624,-714.966 3876.203,-644.673 3875.789,-644.292L3875.035,-643.599L3875.416,-644.525C3875.626,-645.034 3928.575,-772.074 3993.082,-926.835C4076.205,-1126.26 4110.545,-1208.365 4110.977,-1208.72L4111.587,-1209.221L4031.9,-1368.595L3952.214,-1527.969L4202.179,-1777.934L4452.144,-2027.899L4452.144,-1278.136C4452.144,-865.766 4452.114,-528.373 4452.078,-528.373C4452.041,-528.373 4403.815,-624.767 4344.907,-742.581L4344.907,-742.581ZM4904.244,-921.072C4841.122,-1075.656 4789.479,-1202.283 4789.482,-1202.465C4789.482,-1202.647 4825.871,-1275.563 4870.34,-1364.5L4951.192,-1526.204L4959.364,-1518.024C4981.674,-1495.695 5509.617,-964.794 5509.567,-964.738C5509.535,-964.703 5407.423,-999.013 5282.65,-1040.983C5086.883,-1106.833 5055.766,-1117.231 5055.614,-1116.851C5055.517,-1116.608 5047.321,-1009.432 5037.401,-878.681C5027.481,-747.931 5019.285,-640.741 5019.188,-640.481C5019.071,-640.169 4980.14,-735.203 4904.244,-921.072ZM3388.928,-971.021C3389.035,-971.384 3423.386,-1073.54 3465.262,-1198.033C3530.828,-1392.956 3541.339,-1424.409 3540.961,-1424.562C3540.719,-1424.66 3433.544,-1432.857 3302.794,-1442.777C3172.043,-1452.697 3064.857,-1460.892 3064.602,-1460.987C3064.302,-1461.1 3162.652,-1501.388 3345.193,-1575.926C3499.773,-1639.047 3626.396,-1690.69 3626.578,-1690.689C3626.76,-1690.688 3699.675,-1654.304 3788.613,-1609.835L3950.317,-1528.983L3933.803,-1512.503C3924.72,-1503.439 3806.798,-1386.156 3671.755,-1251.875C3536.712,-1117.593 3417.787,-999.319 3407.477,-989.043C3396.307,-977.909 3388.812,-970.627 3388.928,-971.021ZM5553.816,-1568.793C5344.163,-1656.212 5271.289,-1686.706 5271.197,-1687.059C5271.093,-1687.459 5245.832,-1674.914 5111.639,-1607.818L4952.206,-1528.101L4702.241,-1778.066L4452.276,-2028.031L5951.934,-2028.001L5737.66,-1920.845C5540.244,-1822.121 5523.416,-1813.654 5523.772,-1813.241C5535.278,-1799.889 5833.87,-1453.965 5834.929,-1452.76C5835.792,-1451.778 5836.456,-1450.98 5836.405,-1450.988C5836.354,-1450.998 5709.189,-1504.008 5553.816,-1568.792L5553.816,-1568.793ZM3166.628,-2135.216C3364.066,-2233.953 3380.872,-2242.407 3380.515,-2242.821C3376.775,-2247.157 3076.078,-2595.52 3072.623,-2599.519C3069.926,-2602.641 3067.837,-2605.13 3067.98,-2605.051C3068.123,-2604.972 3195.303,-2551.939 3350.601,-2487.202C3563.559,-2398.429 3632.992,-2369.379 3633.088,-2369.013C3633.196,-2368.6 3656.859,-2380.35 3792.638,-2448.24L3952.061,-2527.951L4452.011,-2028.163L4452.276,-3527.69L4559.38,-3313.481C4658.018,-3116.206 4666.52,-3099.303 4666.933,-3099.658C4670.814,-3102.992 5026.162,-3409.713 5027.466,-3410.854C5028.476,-3411.739 5029.239,-3412.344 5029.16,-3412.199C5029.081,-3412.053 4976.049,-3284.872 4911.311,-3129.573C4822.973,-2917.663 4793.484,-2847.181 4793.123,-2847.086C4792.714,-2846.979 4804.71,-2822.821 4872.357,-2687.527L4952.074,-2528.094L4702.043,-2278.062L4452.012,-2028.031L2952.353,-2028.061L3166.628,-2135.216ZM5115.609,-2446.242L4953.971,-2527.079L4960.96,-2534.062C4982.729,-2555.812 5515.383,-3085.498 5515.438,-3085.451C5515.475,-3085.42 5481.165,-2983.308 5439.195,-2858.536C5373.543,-2663.36 5362.948,-2631.654 5363.326,-2631.505C5363.568,-2631.41 5470.743,-2623.215 5601.494,-2613.295C5732.244,-2603.375 5839.435,-2595.177 5839.695,-2595.078C5840.012,-2594.957 5747.117,-2556.902 5559.104,-2480.131C5404.519,-2417.009 5277.862,-2365.373 5277.644,-2365.384C5277.425,-2365.395 5204.51,-2401.781 5115.609,-2446.242ZM3673.814,-2810.602C3520.283,-2964.964 3394.695,-3091.291 3394.729,-3091.331C3394.763,-3091.37 3496.875,-3057.063 3621.644,-3015.093C3815.84,-2949.77 3848.522,-2938.847 3848.673,-2939.219C3848.77,-2939.458 3856.966,-3046.631 3866.885,-3177.381C3876.805,-3308.132 3885.001,-3415.321 3885.099,-3415.581C3885.216,-3415.892 3924.11,-3320.947 4000.043,-3134.99C4063.165,-2980.406 4114.808,-2853.779 4114.805,-2853.597C4114.795,-2853.261 3953.213,-2529.946 3953.05,-2529.946C3953.001,-2529.946 3827.345,-2656.241 3673.814,-2810.602Z" style="fill:white;fill-rule:nonzero;"/>
        </g>
    </g>
</svg>
