<svg width="16" height="15" viewBox="0 0 16 15" fill="none" xmlns="http://www.w3.org/2000/svg">
<path d="M15.2803 1.28033C15.5732 0.987437 15.5732 0.512563 15.2803 0.21967C14.9874 -0.0732233 14.5126 -0.0732233 14.2197 0.21967L8 6.43934L1.78033 0.21967C1.48744 -0.0732233 1.01256 -0.0732233 0.71967 0.21967C0.426777 0.512563 0.426777 0.987437 0.71967 1.28033L6.93934 7.5L0.71967 13.7197C0.426777 14.0126 0.426777 14.4874 0.71967 14.7803C1.01256 15.0732 1.48744 15.0732 1.78033 14.7803L8 8.56066L14.2197 14.7803C14.5126 15.0732 14.9874 15.0732 15.2803 14.7803C15.5732 14.4874 15.5732 14.0126 15.2803 13.7197L9.06066 7.5L15.2803 1.28033Z" fill="#1A241A"/>
</svg>
