<?xml version="1.0" encoding="UTF-8" standalone="no"?>
<!-- Created with Inkscape (http://www.inkscape.org/) -->

<svg
   width="2999.5813mm"
   height="2999.3171mm"
   viewBox="0 0 2999.5813 2999.3171"
   version="1.1"
   id="svg1"
   xml:space="preserve"
   xmlns="http://www.w3.org/2000/svg"
   xmlns:svg="http://www.w3.org/2000/svg"><defs
     id="defs1" /><g
     id="layer1"
     style="display:inline"
     transform="translate(-2952.353,3527.69)"><path
       style="fill:#000000"
       d="m 4344.9071,-742.58121 c -98.79,-197.5802 -107.139,-214.17818 -107.5531,-213.81843 -0.2469,0.21452 -81.5304,70.37053 -180.6301,155.90224 -99.0997,85.53172 -180.5205,155.82415 -180.9351,156.20541 l -0.7538,0.6932 0.381,-0.92604 c 0.2096,-0.50933 53.1594,-127.54902 117.6663,-282.31043 83.123,-199.42434 117.4628,-281.53024 117.8951,-281.88504 l 0.6099,-0.5006 -79.6869,-159.3739 -79.6868,-159.3739 249.965,-249.9651 249.9651,-249.965 v 749.763 c 0,412.36969 -0.03,749.76305 -0.066,749.76305 -0.037,0 -48.2631,-96.3938 -107.1704,-214.20846 z m 559.337,-178.49046 c -63.1218,-154.58443 -114.7646,-281.21143 -114.7618,-281.39333 0,-0.182 36.3886,-73.0977 80.8572,-162.0349 l 80.8522,-161.7041 8.1725,8.1797 c 22.3097,22.3292 550.2525,553.23026 550.2031,553.286 -0.032,0.0356 -102.1443,-34.27439 -226.9171,-76.2444 -195.7676,-65.8505 -226.8839,-76.2485 -227.0364,-75.8678 -0.097,0.2427 -8.2931,107.4189 -18.2131,238.16941 -9.92,130.75047 -18.1158,237.9405 -18.213,238.20005 -0.1168,0.31209 -39.0475,-94.72232 -114.9436,-280.59063 z m -1515.316,-49.94901 c 0.1074,-0.3638 34.4575,-102.51942 76.3334,-227.01252 65.5666,-194.9231 76.0771,-226.3758 75.6992,-226.5291 -0.2414,-0.098 -107.4166,-8.2945 -238.1671,-18.2146 -130.7504,-9.9201 -237.9365,-18.1148 -238.1911,-18.2105 -0.3008,-0.113 98.0492,-40.4002 280.5906,-114.9386 154.5795,-63.1206 281.2025,-114.764 281.3845,-114.763 0.1819,9e-4 73.0977,36.3851 162.035,80.8538 l 161.7043,80.8522 -16.5142,16.4801 c -9.0829,9.0641 -127.0043,126.3468 -262.0476,260.6283 -135.0433,134.2814 -253.9684,252.55571 -264.2779,262.83172 -11.17,11.13367 -18.6656,18.41637 -18.5491,18.0222 z m 2164.8884,-597.77252 c -209.6537,-87.4183 -282.5271,-117.9131 -282.6193,-118.2658 -0.1046,-0.4 -25.3655,12.1454 -159.5577,79.2414 l -159.4334,79.7165 -249.9651,-249.965 -249.965,-249.965 749.8292,0.015 749.8292,0.015 -214.2746,107.1557 c -197.4156,98.7248 -214.2442,107.1911 -213.8878,107.6046 11.5059,13.3514 310.098,359.2754 311.157,360.4807 0.8631,0.9823 1.5272,1.7797 1.4758,1.772 -0.051,-0.01 -127.2161,-53.0196 -282.5883,-117.8044 z m -2387.1889,-566.423 c 197.4388,-98.7364 214.2441,-107.191 213.8874,-107.6046 -3.7397,-4.3358 -304.4371,-352.6991 -307.8917,-356.6981 -2.697,-3.122 -4.7865,-5.6113 -4.6432,-5.5317 0.1432,0.079 127.3225,53.1113 282.6205,117.8485 212.9582,88.7732 282.3913,117.8231 282.487,118.189 0.108,0.4131 23.7712,-11.3371 159.55,-79.2264 l 159.4232,-79.7115 249.9753,249.8938 249.9753,249.8938 0.1323,-749.7632 0.1323,-749.7632 107.1042,214.2086 c 98.6374,197.2751 107.1397,214.1781 107.5531,213.823 3.8808,-3.3334 359.2291,-310.0547 360.5324,-311.1961 1.0107,-0.885 1.7731,-1.4901 1.6942,-1.3446 -0.079,0.1455 -53.1111,127.327 -117.8494,282.6255 -88.3379,211.9108 -117.8262,282.3924 -118.1879,282.487 -0.409,0.1069 11.5875,24.2651 79.2346,159.5594 l 79.7165,159.4334 -250.0311,250.0312 -250.0311,250.0313 -749.8293,-0.015 -749.8292,-0.015 z m 1948.9813,-311.0255 -161.6379,-80.8374 6.9889,-6.9828 c 21.7692,-21.75 554.4232,-551.4363 554.4783,-551.389 0.037,0.031 -34.2727,102.1431 -76.2428,226.915 -65.6521,195.1757 -76.2478,226.8821 -75.8695,227.031 0.2418,0.095 107.4173,8.2897 238.1678,18.21 130.7505,9.9202 237.9411,18.1179 238.2013,18.2172 0.3166,0.1206 -92.5785,38.1761 -280.5906,114.9471 -154.5851,63.1217 -281.2424,114.7577 -281.4607,114.7466 -0.2183,-0.011 -73.1339,-36.3971 -162.0348,-80.8577 z m -1441.7948,-364.3608 c -153.5308,-154.3612 -279.119,-280.6889 -279.085,-280.7282 0.034,-0.039 102.1457,34.2675 226.9148,76.2373 194.1961,65.3236 226.8783,76.2462 227.0292,75.8745 0.097,-0.2388 8.2925,-107.4118 18.2124,-238.1623 9.9199,-130.7504 18.1158,-237.9402 18.2132,-238.1994 0.1172,-0.3119 39.0117,94.6337 114.9441,280.5906 63.1218,154.5841 114.7648,281.2108 114.762,281.3928 -0.01,0.3366 -161.5914,323.6515 -161.7546,323.6515 -0.049,0 -125.7053,-126.2956 -279.2361,-280.6568 z"
       id="path291" /></g></svg>
